<svg width="38" height="38" viewBox="0 0 38 38" fill="none" xmlns="http://www.w3.org/2000/svg">
<g clip-path="url(#clip0_9_25)">
<path d="M28.5 9.49984H25.3333C25.3333 6.00067 22.4992 3.1665 19 3.1665C15.5008 3.1665 12.6667 6.00067 12.6667 9.49984H9.50001C7.75834 9.49984 6.33334 10.9248 6.33334 12.6665V31.6665C6.33334 33.4082 7.75834 34.8332 9.50001 34.8332H28.5C30.2417 34.8332 31.6667 33.4082 31.6667 31.6665V12.6665C31.6667 10.9248 30.2417 9.49984 28.5 9.49984ZM19 6.33317C20.7417 6.33317 22.1667 7.75817 22.1667 9.49984H15.8333C15.8333 7.75817 17.2583 6.33317 19 6.33317ZM28.5 31.6665H9.50001V12.6665H12.6667V15.8332C12.6667 16.704 13.3792 17.4165 14.25 17.4165C15.1208 17.4165 15.8333 16.704 15.8333 15.8332V12.6665H22.1667V15.8332C22.1667 16.704 22.8792 17.4165 23.75 17.4165C24.6208 17.4165 25.3333 16.704 25.3333 15.8332V12.6665H28.5V31.6665Z" fill="#002F52"/>
</g>
<defs>
<clipPath id="clip0_9_25">
<rect width="38" height="38" fill="white"/>
</clipPath>
</defs>
</svg>
